<svg width="40" height="45" viewBox="0 0 40 45" fill="none" xmlns="http://www.w3.org/2000/svg">
    <path d="M39.6788 0L36.0639 40.4953L19.8151 45L3.61101 40.5016L0 0H39.6788Z" fill="#264DE4" />
    <path d="M19.8394 41.5568L32.9692 37.9167L36.0583 3.31161H19.8394V41.5568Z" fill="#2965F1" />
    <path d="M19.8394 18.3331H8.2782L8.72341 23.3004H19.8394V18.3331Z" fill="#EBEBEB" />
    <path d="M19.8393 8.27906H19.8222H7.38354L7.8351 13.2465H19.8393V8.27906Z" fill="#EBEBEB" />
    <path
        d="M8.94531 25.7842L9.64124 33.5837L19.8165 36.4084L19.8394 36.402V31.2339L19.8176 31.2397L14.2854 29.7459L13.9318 25.7842H11.2436H8.94531Z"
        fill="#EBEBEB" />
    <path
        d="M25.9389 23.3004L25.3623 29.7427L19.8221 31.2381V36.406L30.0055 33.5837L30.0802 32.7444L31.2475 19.667L31.3687 18.3331L32.2655 8.27906H19.8221V13.2465H26.8217L26.3697 18.3331H19.8221V23.3004H25.9389Z"
        fill="white" />
</svg>