<svg width="46" height="46" viewBox="0 0 46 46" fill="none" xmlns="http://www.w3.org/2000/svg">
    <path d="M0.5 0.5H45.5V45.5H0.5V0.5Z" fill="#F0DB4F" />
    <path
        d="M41.8169 34.7676C41.4876 32.7144 40.1487 30.9905 36.1834 29.3821C34.806 28.7491 33.2704 28.2957 32.8127 27.2519C32.6501 26.6445 32.6287 26.3023 32.7314 25.9344C33.0265 24.741 34.451 24.3688 35.5802 24.711C36.3074 24.9548 36.9961 25.5153 37.411 26.4092C39.3531 25.1517 39.3488 25.1602 40.7048 24.2961C40.2086 23.5262 39.9434 23.1711 39.6183 22.8418C38.4505 21.5371 36.8592 20.8655 34.3141 20.9169C33.8735 20.9725 33.4287 21.0323 32.988 21.088C31.7176 21.4088 30.5071 22.0761 29.797 22.9701C27.6667 25.3869 28.2742 29.6174 30.8664 31.3584C33.4201 33.2748 37.1715 33.7111 37.6506 35.5034C38.1168 37.6978 36.038 38.4078 33.9719 38.1555C32.4491 37.8389 31.6021 37.0647 30.6867 35.6574C29.0014 36.6326 29.0014 36.6326 27.269 37.6293C27.6796 38.5276 28.1116 38.934 28.8003 39.7125C32.0599 43.0191 40.2171 42.8565 41.6801 37.8518C41.7399 37.6806 42.1335 36.5342 41.8169 34.7676ZM24.9633 21.182H20.7542C20.7542 24.818 20.7371 28.4282 20.7371 32.0642C20.7371 34.3783 20.8569 36.5 20.4805 37.1502C19.8645 38.4291 18.269 38.2709 17.5418 38.0228C16.8018 37.6592 16.4253 37.1416 15.989 36.4102C15.8693 36.2006 15.7794 36.038 15.7494 36.0252C14.6074 36.7224 13.4695 37.4239 12.3274 38.1212C12.8964 39.289 13.7347 40.3028 14.8084 40.9615C16.4125 41.9239 18.5684 42.2191 20.8227 41.7015C22.2899 41.2737 23.556 40.3883 24.219 39.0409C25.1772 37.2742 24.9719 35.1355 24.9633 32.77C24.9847 28.9116 24.9633 25.0532 24.9633 21.182Z"
        fill="#323330" />
</svg>