<svg width="40" height="45" viewBox="0 0 40 45" fill="none" xmlns="http://www.w3.org/2000/svg">
    <path
        d="M19.9507 0C19.3522 0 18.7315 0.155172 18.2217 0.44335L1.72906 9.97537C0.665025 10.5961 0 11.7488 0 12.9901V32.0099C0 33.2512 0.665025 34.4039 1.72906 35.0246L6.05172 37.5074C8.15764 38.5271 8.867 38.5493 9.84237 38.5493C12.9458 38.5493 14.7414 36.665 14.7414 33.3842V14.6084C14.7414 14.3424 14.5197 14.1207 14.2537 14.1207H12.1921C11.9039 14.1207 11.6823 14.3424 11.6823 14.6084V33.3842C11.6823 34.8473 10.1749 36.2882 7.75862 35.069L3.21429 32.4754C3.05911 32.3645 2.97044 32.1872 2.97044 32.0099V12.9901C2.97044 12.7906 3.05911 12.6133 3.21429 12.5246L19.7069 3.01478C19.8399 2.92611 20.0616 2.92611 20.1946 3.01478L36.6872 12.5246C36.8424 12.6133 36.931 12.7906 36.931 12.9901V32.0099C36.931 32.1872 36.8424 32.3645 36.6872 32.4754L20.1946 41.9852C20.0616 42.0739 19.8399 42.0739 19.6847 41.9852L15.5172 39.4581C15.3399 39.3916 15.1626 39.3695 15.0517 39.436C13.8768 40.101 13.6552 40.234 12.569 40.5665C12.303 40.6552 11.8818 40.8103 12.7241 41.2759L18.2217 44.5345C18.7537 44.8448 19.33 45 19.9507 45C20.5714 45 21.1478 44.8448 21.6798 44.5345L38.1724 35.0246C39.2365 34.4039 39.9015 33.2512 39.9015 32.0099V12.9901C39.9015 11.7488 39.2365 10.5961 38.1724 9.97537L21.6798 0.44335C21.17 0.155172 20.5714 0 19.9507 0ZM24.3842 13.633C19.6847 13.633 16.8695 15.6059 16.8695 18.931C16.8695 22.5 19.6626 23.5419 24.1847 23.9852C29.5714 24.5172 29.9926 25.3153 29.9926 26.3793C29.9926 28.2192 28.5074 28.9951 25.0493 28.9951C20.6601 28.9951 19.7291 27.9089 19.3966 25.7365C19.3522 25.5148 19.1527 25.3374 18.9089 25.3374H16.7808C16.5148 25.3374 16.3153 25.5369 16.3153 25.8251C16.3153 28.5739 17.8227 31.899 25.0493 31.899C30.2586 31.899 33.2512 29.8374 33.2512 26.2463C33.2512 22.6773 30.8571 21.7463 25.7808 21.0591C20.6601 20.3941 20.1502 20.0394 20.1502 18.8424C20.1502 17.8448 20.5936 16.5148 24.3842 16.5148C27.7094 16.5148 29.0172 17.2463 29.5271 19.5296C29.5714 19.7512 29.7709 19.9064 29.9926 19.9064H32.1429C32.2537 19.9064 32.3867 19.8621 32.4754 19.7512C32.564 19.6626 32.6305 19.5296 32.5862 19.3966C32.2759 15.4507 29.6601 13.633 24.3842 13.633Z"
        fill="#8BC34A" />
</svg>