<svg xmlns="http://www.w3.org/2000/svg" width="46" height="45" fill="none">
    <path fill="url(#a)"
        d="M11.864 6.021c0-3.098.85-4.783 5.54-5.586 3.186-.545 7.27-.614 11.08 0 3.008.486 5.54 2.677 5.54 5.586v10.222c0 2.998-2.458 5.453-5.54 5.453h-11.08c-3.76 0-6.928 3.134-6.928 6.678v4.904h-3.81c-3.221 0-5.097-2.272-5.886-5.45-1.063-4.27-1.017-6.814 0-10.904.883-3.567 3.703-5.45 6.925-5.45h15.241V10.11H11.863V6.021Z" />
    <path fill="url(#b)"
        d="M34.025 38.732c0 3.098-2.75 4.667-5.541 5.45-4.2 1.18-7.57.999-11.079 0-2.93-.835-5.541-2.54-5.541-5.45V28.51c0-2.941 2.508-5.453 5.541-5.453h11.079c3.69 0 6.928-3.118 6.928-6.814v-4.768h4.154c3.227 0 4.746 2.344 5.542 5.45 1.108 4.314 1.157 7.54 0 10.903-1.12 3.267-2.32 5.45-5.541 5.45h-16.62v1.365h11.078v4.089Z" />
    <path fill="#fff"
        d="M14.634 5.343c0-1.131.928-2.047 2.078-2.047 1.145 0 2.077.915 2.077 2.047 0 1.128-.932 2.043-2.078 2.043-1.149 0-2.077-.915-2.077-2.043ZM27.1 39.41c0-1.128.932-2.043 2.077-2.043 1.15 0 2.077.915 2.077 2.043 0 1.132-.927 2.047-2.077 2.047-1.145 0-2.077-.915-2.077-2.047Z" />
    <defs>
        <linearGradient id="a" x1="34.025" x2="0" y1="12.937" y2="12.66"
            gradientUnits="userSpaceOnUse">
            <stop stop-color="#366A96" />
            <stop offset="1" stop-color="#3679B0" />
        </linearGradient>
        <linearGradient id="b" x1="45.957" x2="-21.395" y1="28.238" y2="28.238"
            gradientUnits="userSpaceOnUse">
            <stop stop-color="#FFC836" />
            <stop offset="1" stop-color="#FFE873" />
        </linearGradient>
    </defs>
</svg>