<svg width="46" height="45" viewBox="0 0 46 45" fill="none" xmlns="http://www.w3.org/2000/svg">
<path d="M11.8635 6.02138C11.8635 2.92326 12.7132 1.23787 17.4048 0.435313C20.59 -0.110491 24.6739 -0.178716 28.4834 0.435313C31.4923 0.92085 34.0247 3.11202 34.0247 6.02138V16.2427C34.0247 19.2405 31.566 21.6962 28.4834 21.6962H17.4048C13.6449 21.6962 10.476 24.8304 10.476 28.3738V33.2779H6.66671C3.44456 33.2779 1.56854 31.0064 0.780449 27.828C-0.282591 23.558 -0.237464 21.0139 0.780449 16.9245C1.66298 13.357 4.48295 11.4746 7.70533 11.4746H22.9461V10.1101H11.8633V6.02116L11.8635 6.02138Z" fill="url(#paint0_linear_30_203)"/>
<path d="M34.025 38.7316C34.025 41.8297 31.2748 43.3989 28.4837 44.1814C24.2846 45.3613 20.9145 45.1807 17.4051 44.1814C14.4742 43.3468 11.8638 41.6412 11.8638 38.7316V28.5103C11.8638 25.5686 14.3718 23.0568 17.4051 23.0568H28.4837C32.1739 23.0568 35.4125 19.9389 35.4125 16.2427V11.4751H39.5665C42.7929 11.4751 44.3118 13.8186 45.1078 16.9249C46.216 21.2391 46.2653 24.4654 45.1078 27.8285C43.9873 31.0951 42.7887 33.2783 39.5665 33.2783H22.9464V34.6428H34.025V38.7316Z" fill="url(#paint1_linear_30_203)"/>
<path d="M14.6343 5.34322C14.6343 4.21159 15.5619 3.29646 16.7115 3.29646C17.8567 3.29646 18.7887 4.21136 18.7887 5.34322C18.7887 6.47121 17.8569 7.38589 16.7115 7.38589C15.5624 7.38589 14.6343 6.47098 14.6343 5.34322ZM27.1 39.41C27.1 38.282 28.0318 37.3673 29.1772 37.3673C30.3263 37.3673 31.2544 38.2822 31.2544 39.41C31.2544 40.5416 30.3268 41.4567 29.1772 41.4567C28.0321 41.4567 27.1 40.5418 27.1 39.41Z" fill="white"/>
<defs>
<linearGradient id="paint0_linear_30_203" x1="34.025" y1="12.9367" x2="0.00036441" y2="12.66" gradientUnits="userSpaceOnUse">
<stop stop-color="#366A96"/>
<stop offset="1" stop-color="#3679B0"/>
</linearGradient>
<linearGradient id="paint1_linear_30_203" x1="45.9573" y1="28.2376" x2="-21.3952" y2="28.2376" gradientUnits="userSpaceOnUse">
<stop stop-color="#FFC836"/>
<stop offset="1" stop-color="#FFE873"/>
</linearGradient>
</defs>
</svg>
