<svg width="51" height="45" viewBox="0 0 51 45" fill="none" xmlns="http://www.w3.org/2000/svg">
    <path
        d="M25.2858 26.97C27.7796 26.97 29.8012 24.9484 29.8012 22.4547C29.8012 19.9609 27.7796 17.9393 25.2858 17.9393C22.7921 17.9393 20.7705 19.9609 20.7705 22.4547C20.7705 24.9484 22.7921 26.97 25.2858 26.97Z"
        fill="#00D8FF" />
    <path
        d="M25.2858 32.8074C19.8586 32.9387 14.4451 32.2071 9.24739 30.64C6.84636 29.8789 4.60696 28.6799 2.64237 27.1036C1.8927 26.5651 1.26839 25.8708 0.812293 25.0684C0.356192 24.2659 0.0790898 23.3743 0 22.4546C0 19.4691 3.27993 16.5432 8.77418 14.6287C14.1108 12.9323 19.6867 12.1101 25.2858 12.194C30.8102 12.1168 36.3114 12.9241 41.5807 14.5853C43.8931 15.3225 46.0566 16.4636 47.9708 17.9556C48.7077 18.4689 49.3226 19.1381 49.7721 19.9156C50.2215 20.6931 50.4945 21.5599 50.5717 22.4546C50.5717 25.5576 46.9052 28.7021 40.9992 30.6563C35.9021 32.1723 30.6028 32.8978 25.2858 32.8074ZM25.2858 14.3542C19.9291 14.2825 14.595 15.0641 9.48399 16.6696C4.42683 18.4342 2.16013 20.8472 2.16013 22.4492C2.16013 24.1253 4.5966 26.7605 9.94636 28.5901C14.9188 30.0817 20.0961 30.776 25.2858 30.6473C30.3726 30.7382 35.4434 30.0499 40.3219 28.6063C45.8757 26.7659 48.4043 24.1271 48.4043 22.4546C48.3132 21.8807 48.104 21.3319 47.79 20.8429C47.476 20.3539 47.0641 19.9353 46.5801 19.6136C44.8674 18.29 42.9348 17.2787 40.8709 16.6263C35.8301 15.0437 30.5687 14.2766 25.2858 14.3542Z"
        fill="#00D8FF" />
    <path
        d="M15.027 44.9753C14.1845 44.9946 13.3519 44.7902 12.6141 44.3829C10.0277 42.891 9.13184 38.5888 10.2173 32.8724C11.4141 27.4018 13.4879 22.1608 16.3582 17.3523C19.0506 12.5284 22.4975 8.16621 26.5682 4.43129C28.362 2.7962 30.4313 1.49189 32.6802 0.578809C33.4936 0.197606 34.3809 0 35.2792 0C36.1775 0 37.0648 0.197606 37.8782 0.578809C40.5675 2.12847 41.458 6.87498 40.2027 12.9671C38.9689 18.1408 36.9491 23.0948 34.2136 27.6563C31.6159 32.4233 28.2775 36.7475 24.3232 40.4672C22.4643 42.1664 20.307 43.5068 17.9602 44.4208C17.0207 44.7695 16.029 44.957 15.027 44.9753ZM18.2293 18.4252C15.4914 23.0296 13.5039 28.0405 12.3413 33.2698C11.3425 38.5346 12.3016 41.7008 13.6959 42.5063C15.1408 43.3426 18.6483 42.5497 22.9072 38.829C26.6821 35.2655 29.8684 31.1263 32.3478 26.5654C34.9684 22.2045 36.906 17.4682 38.0931 12.5209C39.2743 6.78648 38.2539 3.27536 36.8054 2.44093C36.2625 2.23291 35.6823 2.13979 35.1016 2.16746C34.5209 2.19513 33.9522 2.34298 33.4315 2.60168C31.4297 3.4277 29.5894 4.60039 27.9951 6.06583C24.1059 9.6434 20.8133 13.8194 18.242 18.436L18.2293 18.4252Z"
        fill="#00D8FF" />
    <path
        d="M35.5392 44.9988C33.0919 44.9988 29.9836 43.5177 26.747 40.7345C22.605 36.9656 19.0998 32.5516 16.3672 27.6635C13.5329 22.9213 11.4756 17.7561 10.2733 12.3638C9.75187 9.99142 9.65525 7.54538 9.98792 5.13927C10.0648 4.24669 10.3366 3.38185 10.7841 2.60574C11.2316 1.82963 11.8439 1.16114 12.5779 0.647422C15.2636 -0.907657 19.8205 0.690769 24.4713 4.81958C28.3375 8.47191 31.6206 12.6956 34.2063 17.3433C37.0389 21.9748 39.1177 27.0269 40.3652 32.3107C40.9091 34.7701 40.993 37.309 40.6127 39.7989C40.5222 40.7172 40.2342 41.605 39.7684 42.4015C39.3027 43.198 38.6702 43.8844 37.9143 44.4136C37.1885 44.8158 36.3688 45.0178 35.5392 44.9988ZM18.2365 26.5762C20.858 31.2477 24.2063 35.4721 28.1558 39.0909C32.2178 42.5858 35.4399 43.3371 36.8252 42.5226C38.2701 41.6827 39.3357 38.2547 38.2376 32.708C37.0345 27.6634 35.0405 22.841 32.3298 18.4197C29.8623 13.9715 26.7285 9.92707 23.0372 6.42704C18.6591 2.54025 15.1083 1.6715 13.6616 2.50954C13.2107 2.87597 12.8406 3.33192 12.5748 3.84858C12.3091 4.36525 12.1533 4.93142 12.1173 5.51133C11.8302 7.65717 11.9237 9.83684 12.3937 11.9502C13.5502 17.1069 15.5232 22.0458 18.2383 26.5798L18.2365 26.5762Z"
        fill="#00D8FF" />
</svg>