<svg width="61" height="45" viewBox="0 0 61 45" fill="none" xmlns="http://www.w3.org/2000/svg">
    <path
        d="M51.6802 25.8403C49.5811 25.8521 47.7635 26.3562 46.2391 27.1068C45.6762 25.9928 45.1134 25.0194 45.0197 24.2925C44.9141 23.4482 44.7851 22.9321 44.9141 21.9238C45.043 20.9152 45.6293 19.4845 45.6293 19.3673C45.6175 19.2617 45.5002 18.7458 44.2925 18.7341C43.0848 18.7223 42.041 18.9686 41.9238 19.2852C41.8065 19.6018 41.572 20.3288 41.4196 21.0793C41.2085 22.1816 39.0039 26.0865 37.7492 28.1386C37.3388 27.3412 36.987 26.6377 36.9165 26.0747C36.8111 25.2305 36.682 24.7144 36.8111 23.7061C36.9401 22.6975 37.5264 21.267 37.5264 21.1497C37.5147 21.0442 37.3974 20.5282 36.1897 20.5165C34.9817 20.5047 33.9382 20.751 33.8209 21.0676C33.7037 21.3842 33.5747 22.1347 33.3167 22.8618C33.0703 23.5888 30.1387 30.1087 29.3765 31.809C28.9895 32.6768 28.6496 33.3686 28.4032 33.8377C28.157 34.3067 28.3915 33.8729 28.368 33.9198C28.157 34.3185 28.0397 34.5413 28.0397 34.5413V34.5531C27.8755 34.8463 27.6996 35.1276 27.6174 35.1276C27.5588 35.1276 27.4415 34.3419 27.6409 33.2632C28.0748 30.9999 29.1301 27.4704 29.1185 27.3414C29.1185 27.2827 29.3178 26.6611 28.4383 26.3446C27.5823 26.028 27.2775 26.5557 27.207 26.5557C27.1367 26.5557 27.078 26.7433 27.078 26.7433C27.078 26.7433 28.0279 22.7682 25.2604 22.7682C23.5249 22.7682 21.1327 24.6561 19.9484 26.3799C19.1979 26.7903 17.6031 27.658 15.9145 28.5845C15.2695 28.9363 14.6011 29.3115 13.9679 29.6516L13.839 29.5106C10.4853 25.9341 4.28198 23.4012 4.53996 18.5933C4.63377 16.8461 5.24355 12.2376 16.4541 6.65584C25.6359 2.08254 32.9884 3.33727 34.2664 6.12816C36.084 10.1151 30.3381 17.5262 20.7929 18.5933C17.1577 19.0038 15.2462 17.5966 14.7655 17.0689C14.2613 16.5178 14.1909 16.4943 14.0033 16.5998C13.6984 16.764 13.886 17.2565 14.0033 17.5497C14.2847 18.2885 15.4574 19.6018 17.4509 20.2585C19.198 20.8331 23.4665 21.1497 28.6261 19.1562C34.4073 16.9165 38.9219 10.7015 37.5969 5.50666C36.2483 0.21804 27.477 -1.51747 19.1864 1.42586C14.2494 3.18482 8.90219 5.92881 5.05592 9.52882C0.48262 13.7972 -0.244418 17.5262 0.060469 19.0741C1.12769 24.5973 8.73802 28.1973 11.7869 30.8592C11.6344 30.9411 11.4937 31.0232 11.3647 31.0937C9.8403 31.8441 4.03573 34.8813 2.58165 38.0943C0.939951 41.7294 2.83963 44.3446 4.10608 44.6963C8.02271 45.7869 12.0331 43.8286 14.2025 40.6038C16.3601 37.3791 16.1022 33.1927 15.1055 31.2813L15.0702 31.211L16.2663 30.5074C17.0403 30.0501 17.8025 29.6279 18.4708 29.2643C18.0957 30.2845 17.8259 31.4923 17.6853 33.2512C17.5211 35.3152 18.3654 37.9887 19.4794 39.0441C19.9719 39.5013 20.5583 39.5132 20.9218 39.5132C22.2117 39.5132 22.798 38.4459 23.4429 37.1679C24.2403 35.6083 24.9439 33.8024 24.9439 33.8024C24.9439 33.8024 24.0645 38.6923 26.4684 38.6923C27.3478 38.6923 28.2273 37.5548 28.626 36.9685V36.9802C28.626 36.9802 28.6495 36.9451 28.6964 36.863C28.7456 36.7902 28.7925 36.716 28.8371 36.6403V36.6168C29.1889 36.0071 29.9746 34.6116 31.1472 32.3015C32.6598 29.323 34.114 25.594 34.114 25.594C34.114 25.594 34.2547 26.5087 34.6886 28.0097C34.9465 28.901 35.5093 29.8742 35.9432 30.824C35.5914 31.3165 35.3803 31.5981 35.3803 31.5981L35.3921 31.6098C35.1107 31.985 34.794 32.3838 34.4658 32.7824C33.2697 34.213 31.8391 35.8431 31.6514 36.3122C31.4286 36.8632 31.4755 37.2736 31.9094 37.6021C32.226 37.8366 32.7889 37.8834 33.387 37.8366C34.4658 37.7662 35.2163 37.4966 35.5915 37.3323C36.1778 37.1212 36.8462 36.8046 37.4912 36.3355C38.6638 35.4679 39.3792 34.2366 39.3088 32.5949C39.2736 31.692 38.9805 30.8008 38.6169 29.9565C38.7225 29.804 38.8281 29.6515 38.9335 29.4874C40.7863 26.7785 42.2169 23.8001 42.2169 23.8001C42.2169 23.8001 42.3577 24.7148 42.7915 26.2157C43.0142 26.978 43.4599 27.8107 43.8586 28.6315C42.1231 30.0504 41.0326 31.6921 40.6573 32.7709C39.9655 34.7644 40.5049 35.6674 41.5251 35.8784C41.9823 35.9722 42.6391 35.7612 43.1315 35.5501C43.7413 35.3507 44.48 35.0106 45.1603 34.5064C46.3329 33.6387 47.4587 32.4309 47.4 30.8009C47.3648 30.0504 47.1655 29.3116 46.8958 28.6081C48.3733 27.9983 50.2846 27.6465 52.7121 27.9396C57.9303 28.5494 58.9623 31.8094 58.763 33.1696C58.5637 34.53 57.4731 35.2804 57.1095 35.5149C56.746 35.7377 56.6287 35.8199 56.6639 35.984C56.7108 36.2303 56.875 36.2185 57.1916 36.1717C57.6255 36.1012 59.9356 35.0577 60.0294 32.5484C60.1701 29.3231 57.1095 25.8052 51.6802 25.8403ZM11.4351 39.4077C9.71131 41.2957 7.28394 42.011 6.25202 41.4012C5.13801 40.7563 5.57177 37.9771 7.69437 35.9719C8.98427 34.7523 10.6612 33.6266 11.7634 32.9347C12.0097 32.7823 12.3849 32.5596 12.8305 32.2898C12.9009 32.243 12.9478 32.2194 12.9478 32.2194C13.0299 32.1725 13.1237 32.1139 13.2175 32.0553C14.0032 34.9165 13.2527 37.426 11.4351 39.4077ZM24.041 30.8357C23.4429 32.3015 22.1765 36.0657 21.4143 35.8546C20.7575 35.6787 20.3589 32.8292 21.2852 30.0149C21.7542 28.5959 22.751 26.9074 23.3373 26.2506C24.2873 25.1952 25.3191 24.8434 25.5772 25.2773C25.882 25.8403 24.4162 29.9211 24.041 30.8357ZM34.4423 35.8077C34.1843 35.9368 33.9498 36.0305 33.8443 35.9603C33.7622 35.9134 33.9497 35.7375 33.9497 35.7375C33.9497 35.7375 35.2513 34.342 35.7673 33.6971C36.0605 33.322 36.4123 32.8881 36.7875 32.3955V32.5362C36.7876 34.2247 35.1694 35.3504 34.4423 35.8077ZM42.4631 33.9784C42.2755 33.8377 42.299 33.4038 42.9321 32.0435C43.1785 31.5041 43.7413 30.6012 44.7146 29.7452C44.8318 30.097 44.9023 30.4369 44.8905 30.7536C44.8788 32.8644 43.3779 33.6501 42.4631 33.9784Z"
        fill="#CF649A" />
</svg>