<svg
    arial-hidden="true"
    xmlns="http://www.w3.org/2000/svg"
    overflow="hidden">
    <defs>
        <symbol id='html'>
            <path d="M3.30127 40.3459L0 0L39.4257 0.0810771L35.9349 40.3459L19.8617 45L3.30127 40.3459Z"
            fill="#E34F26" />
            <path d="M19.8617 41.1035V3.84242L36.0975 3.89647L33.2022 37.2338L19.8617 41.1035Z"
                fill="#EF652A" />
            <path
                d="M31.6328 13.151L32.0926 8.22599H7.1167L8.4966 23.3254H25.7336L25.0576 29.7655L19.5374 31.2535L13.9361 29.63L13.6385 25.7876H8.6861L9.36269 33.6349L19.5371 36.4761L29.7925 33.6349L31.1724 18.3193H13.07L12.5559 13.151H31.6328Z"
                fill="white" />
        </symbol>

        <symbol id="css">
            <path d="M39.6788 0L36.0639 40.4953L19.8151 45L3.61101 40.5016L0 0H39.6788Z" fill="#264DE4" />
            <path d="M19.8394 41.5568L32.9692 37.9167L36.0583 3.31161H19.8394V41.5568Z" fill="#2965F1" />
            <path d="M19.8394 18.3331H8.2782L8.72341 23.3004H19.8394V18.3331Z" fill="#EBEBEB" />
            <path d="M19.8393 8.27906H19.8222H7.38354L7.8351 13.2465H19.8393V8.27906Z" fill="#EBEBEB" />
            <path
                d="M8.94531 25.7842L9.64124 33.5837L19.8165 36.4084L19.8394 36.402V31.2339L19.8176 31.2397L14.2854 29.7459L13.9318 25.7842H11.2436H8.94531Z"
                fill="#EBEBEB" />
            <path
                d="M25.9389 23.3004L25.3623 29.7427L19.8221 31.2381V36.406L30.0055 33.5837L30.0802 32.7444L31.2475 19.667L31.3687 18.3331L32.2655 8.27906H19.8221V13.2465H26.8217L26.3697 18.3331H19.8221V23.3004H25.9389Z"
                fill="white" />
        </symbol>

        <symbol id="javascript">
            <path d="M0.5 0.5H45.5V45.5H0.5V0.5Z" fill="#F0DB4F" />
            <path
                d="M41.8169 34.7676C41.4876 32.7144 40.1487 30.9905 36.1834 29.3821C34.806 28.7491 33.2704 28.2957 32.8127 27.2519C32.6501 26.6445 32.6287 26.3023 32.7314 25.9344C33.0265 24.741 34.451 24.3688 35.5802 24.711C36.3074 24.9548 36.9961 25.5153 37.411 26.4092C39.3531 25.1517 39.3488 25.1602 40.7048 24.2961C40.2086 23.5262 39.9434 23.1711 39.6183 22.8418C38.4505 21.5371 36.8592 20.8655 34.3141 20.9169C33.8735 20.9725 33.4287 21.0323 32.988 21.088C31.7176 21.4088 30.5071 22.0761 29.797 22.9701C27.6667 25.3869 28.2742 29.6174 30.8664 31.3584C33.4201 33.2748 37.1715 33.7111 37.6506 35.5034C38.1168 37.6978 36.038 38.4078 33.9719 38.1555C32.4491 37.8389 31.6021 37.0647 30.6867 35.6574C29.0014 36.6326 29.0014 36.6326 27.269 37.6293C27.6796 38.5276 28.1116 38.934 28.8003 39.7125C32.0599 43.0191 40.2171 42.8565 41.6801 37.8518C41.7399 37.6806 42.1335 36.5342 41.8169 34.7676ZM24.9633 21.182H20.7542C20.7542 24.818 20.7371 28.4282 20.7371 32.0642C20.7371 34.3783 20.8569 36.5 20.4805 37.1502C19.8645 38.4291 18.269 38.2709 17.5418 38.0228C16.8018 37.6592 16.4253 37.1416 15.989 36.4102C15.8693 36.2006 15.7794 36.038 15.7494 36.0252C14.6074 36.7224 13.4695 37.4239 12.3274 38.1212C12.8964 39.289 13.7347 40.3028 14.8084 40.9615C16.4125 41.9239 18.5684 42.2191 20.8227 41.7015C22.2899 41.2737 23.556 40.3883 24.219 39.0409C25.1772 37.2742 24.9719 35.1355 24.9633 32.77C24.9847 28.9116 24.9633 25.0532 24.9633 21.182Z"
                fill="#323330" />
        </symbol>

        <symbol id="sass">
            <path
            d="M51.6802 25.8403C49.5811 25.8521 47.7635 26.3562 46.2391 27.1068C45.6762 25.9928 45.1134 25.0194 45.0197 24.2925C44.9141 23.4482 44.7851 22.9321 44.9141 21.9238C45.043 20.9152 45.6293 19.4845 45.6293 19.3673C45.6175 19.2617 45.5002 18.7458 44.2925 18.7341C43.0848 18.7223 42.041 18.9686 41.9238 19.2852C41.8065 19.6018 41.572 20.3288 41.4196 21.0793C41.2085 22.1816 39.0039 26.0865 37.7492 28.1386C37.3388 27.3412 36.987 26.6377 36.9165 26.0747C36.8111 25.2305 36.682 24.7144 36.8111 23.7061C36.9401 22.6975 37.5264 21.267 37.5264 21.1497C37.5147 21.0442 37.3974 20.5282 36.1897 20.5165C34.9817 20.5047 33.9382 20.751 33.8209 21.0676C33.7037 21.3842 33.5747 22.1347 33.3167 22.8618C33.0703 23.5888 30.1387 30.1087 29.3765 31.809C28.9895 32.6768 28.6496 33.3686 28.4032 33.8377C28.157 34.3067 28.3915 33.8729 28.368 33.9198C28.157 34.3185 28.0397 34.5413 28.0397 34.5413V34.5531C27.8755 34.8463 27.6996 35.1276 27.6174 35.1276C27.5588 35.1276 27.4415 34.3419 27.6409 33.2632C28.0748 30.9999 29.1301 27.4704 29.1185 27.3414C29.1185 27.2827 29.3178 26.6611 28.4383 26.3446C27.5823 26.028 27.2775 26.5557 27.207 26.5557C27.1367 26.5557 27.078 26.7433 27.078 26.7433C27.078 26.7433 28.0279 22.7682 25.2604 22.7682C23.5249 22.7682 21.1327 24.6561 19.9484 26.3799C19.1979 26.7903 17.6031 27.658 15.9145 28.5845C15.2695 28.9363 14.6011 29.3115 13.9679 29.6516L13.839 29.5106C10.4853 25.9341 4.28198 23.4012 4.53996 18.5933C4.63377 16.8461 5.24355 12.2376 16.4541 6.65584C25.6359 2.08254 32.9884 3.33727 34.2664 6.12816C36.084 10.1151 30.3381 17.5262 20.7929 18.5933C17.1577 19.0038 15.2462 17.5966 14.7655 17.0689C14.2613 16.5178 14.1909 16.4943 14.0033 16.5998C13.6984 16.764 13.886 17.2565 14.0033 17.5497C14.2847 18.2885 15.4574 19.6018 17.4509 20.2585C19.198 20.8331 23.4665 21.1497 28.6261 19.1562C34.4073 16.9165 38.9219 10.7015 37.5969 5.50666C36.2483 0.21804 27.477 -1.51747 19.1864 1.42586C14.2494 3.18482 8.90219 5.92881 5.05592 9.52882C0.48262 13.7972 -0.244418 17.5262 0.060469 19.0741C1.12769 24.5973 8.73802 28.1973 11.7869 30.8592C11.6344 30.9411 11.4937 31.0232 11.3647 31.0937C9.8403 31.8441 4.03573 34.8813 2.58165 38.0943C0.939951 41.7294 2.83963 44.3446 4.10608 44.6963C8.02271 45.7869 12.0331 43.8286 14.2025 40.6038C16.3601 37.3791 16.1022 33.1927 15.1055 31.2813L15.0702 31.211L16.2663 30.5074C17.0403 30.0501 17.8025 29.6279 18.4708 29.2643C18.0957 30.2845 17.8259 31.4923 17.6853 33.2512C17.5211 35.3152 18.3654 37.9887 19.4794 39.0441C19.9719 39.5013 20.5583 39.5132 20.9218 39.5132C22.2117 39.5132 22.798 38.4459 23.4429 37.1679C24.2403 35.6083 24.9439 33.8024 24.9439 33.8024C24.9439 33.8024 24.0645 38.6923 26.4684 38.6923C27.3478 38.6923 28.2273 37.5548 28.626 36.9685V36.9802C28.626 36.9802 28.6495 36.9451 28.6964 36.863C28.7456 36.7902 28.7925 36.716 28.8371 36.6403V36.6168C29.1889 36.0071 29.9746 34.6116 31.1472 32.3015C32.6598 29.323 34.114 25.594 34.114 25.594C34.114 25.594 34.2547 26.5087 34.6886 28.0097C34.9465 28.901 35.5093 29.8742 35.9432 30.824C35.5914 31.3165 35.3803 31.5981 35.3803 31.5981L35.3921 31.6098C35.1107 31.985 34.794 32.3838 34.4658 32.7824C33.2697 34.213 31.8391 35.8431 31.6514 36.3122C31.4286 36.8632 31.4755 37.2736 31.9094 37.6021C32.226 37.8366 32.7889 37.8834 33.387 37.8366C34.4658 37.7662 35.2163 37.4966 35.5915 37.3323C36.1778 37.1212 36.8462 36.8046 37.4912 36.3355C38.6638 35.4679 39.3792 34.2366 39.3088 32.5949C39.2736 31.692 38.9805 30.8008 38.6169 29.9565C38.7225 29.804 38.8281 29.6515 38.9335 29.4874C40.7863 26.7785 42.2169 23.8001 42.2169 23.8001C42.2169 23.8001 42.3577 24.7148 42.7915 26.2157C43.0142 26.978 43.4599 27.8107 43.8586 28.6315C42.1231 30.0504 41.0326 31.6921 40.6573 32.7709C39.9655 34.7644 40.5049 35.6674 41.5251 35.8784C41.9823 35.9722 42.6391 35.7612 43.1315 35.5501C43.7413 35.3507 44.48 35.0106 45.1603 34.5064C46.3329 33.6387 47.4587 32.4309 47.4 30.8009C47.3648 30.0504 47.1655 29.3116 46.8958 28.6081C48.3733 27.9983 50.2846 27.6465 52.7121 27.9396C57.9303 28.5494 58.9623 31.8094 58.763 33.1696C58.5637 34.53 57.4731 35.2804 57.1095 35.5149C56.746 35.7377 56.6287 35.8199 56.6639 35.984C56.7108 36.2303 56.875 36.2185 57.1916 36.1717C57.6255 36.1012 59.9356 35.0577 60.0294 32.5484C60.1701 29.3231 57.1095 25.8052 51.6802 25.8403ZM11.4351 39.4077C9.71131 41.2957 7.28394 42.011 6.25202 41.4012C5.13801 40.7563 5.57177 37.9771 7.69437 35.9719C8.98427 34.7523 10.6612 33.6266 11.7634 32.9347C12.0097 32.7823 12.3849 32.5596 12.8305 32.2898C12.9009 32.243 12.9478 32.2194 12.9478 32.2194C13.0299 32.1725 13.1237 32.1139 13.2175 32.0553C14.0032 34.9165 13.2527 37.426 11.4351 39.4077ZM24.041 30.8357C23.4429 32.3015 22.1765 36.0657 21.4143 35.8546C20.7575 35.6787 20.3589 32.8292 21.2852 30.0149C21.7542 28.5959 22.751 26.9074 23.3373 26.2506C24.2873 25.1952 25.3191 24.8434 25.5772 25.2773C25.882 25.8403 24.4162 29.9211 24.041 30.8357ZM34.4423 35.8077C34.1843 35.9368 33.9498 36.0305 33.8443 35.9603C33.7622 35.9134 33.9497 35.7375 33.9497 35.7375C33.9497 35.7375 35.2513 34.342 35.7673 33.6971C36.0605 33.322 36.4123 32.8881 36.7875 32.3955V32.5362C36.7876 34.2247 35.1694 35.3504 34.4423 35.8077ZM42.4631 33.9784C42.2755 33.8377 42.299 33.4038 42.9321 32.0435C43.1785 31.5041 43.7413 30.6012 44.7146 29.7452C44.8318 30.097 44.9023 30.4369 44.8905 30.7536C44.8788 32.8644 43.3779 33.6501 42.4631 33.9784Z"
            fill="#CF649A" />
        </symbol>

        <symbol id="react">
            <path
            d="M25.2858 26.97C27.7796 26.97 29.8012 24.9484 29.8012 22.4547C29.8012 19.9609 27.7796 17.9393 25.2858 17.9393C22.7921 17.9393 20.7705 19.9609 20.7705 22.4547C20.7705 24.9484 22.7921 26.97 25.2858 26.97Z"
            fill="#00D8FF" />
            <path
                d="M25.2858 32.8074C19.8586 32.9387 14.4451 32.2071 9.24739 30.64C6.84636 29.8789 4.60696 28.6799 2.64237 27.1036C1.8927 26.5651 1.26839 25.8708 0.812293 25.0684C0.356192 24.2659 0.0790898 23.3743 0 22.4546C0 19.4691 3.27993 16.5432 8.77418 14.6287C14.1108 12.9323 19.6867 12.1101 25.2858 12.194C30.8102 12.1168 36.3114 12.9241 41.5807 14.5853C43.8931 15.3225 46.0566 16.4636 47.9708 17.9556C48.7077 18.4689 49.3226 19.1381 49.7721 19.9156C50.2215 20.6931 50.4945 21.5599 50.5717 22.4546C50.5717 25.5576 46.9052 28.7021 40.9992 30.6563C35.9021 32.1723 30.6028 32.8978 25.2858 32.8074ZM25.2858 14.3542C19.9291 14.2825 14.595 15.0641 9.48399 16.6696C4.42683 18.4342 2.16013 20.8472 2.16013 22.4492C2.16013 24.1253 4.5966 26.7605 9.94636 28.5901C14.9188 30.0817 20.0961 30.776 25.2858 30.6473C30.3726 30.7382 35.4434 30.0499 40.3219 28.6063C45.8757 26.7659 48.4043 24.1271 48.4043 22.4546C48.3132 21.8807 48.104 21.3319 47.79 20.8429C47.476 20.3539 47.0641 19.9353 46.5801 19.6136C44.8674 18.29 42.9348 17.2787 40.8709 16.6263C35.8301 15.0437 30.5687 14.2766 25.2858 14.3542Z"
                fill="#00D8FF" />
            <path
                d="M15.027 44.9753C14.1845 44.9946 13.3519 44.7902 12.6141 44.3829C10.0277 42.891 9.13184 38.5888 10.2173 32.8724C11.4141 27.4018 13.4879 22.1608 16.3582 17.3523C19.0506 12.5284 22.4975 8.16621 26.5682 4.43129C28.362 2.7962 30.4313 1.49189 32.6802 0.578809C33.4936 0.197606 34.3809 0 35.2792 0C36.1775 0 37.0648 0.197606 37.8782 0.578809C40.5675 2.12847 41.458 6.87498 40.2027 12.9671C38.9689 18.1408 36.9491 23.0948 34.2136 27.6563C31.6159 32.4233 28.2775 36.7475 24.3232 40.4672C22.4643 42.1664 20.307 43.5068 17.9602 44.4208C17.0207 44.7695 16.029 44.957 15.027 44.9753ZM18.2293 18.4252C15.4914 23.0296 13.5039 28.0405 12.3413 33.2698C11.3425 38.5346 12.3016 41.7008 13.6959 42.5063C15.1408 43.3426 18.6483 42.5497 22.9072 38.829C26.6821 35.2655 29.8684 31.1263 32.3478 26.5654C34.9684 22.2045 36.906 17.4682 38.0931 12.5209C39.2743 6.78648 38.2539 3.27536 36.8054 2.44093C36.2625 2.23291 35.6823 2.13979 35.1016 2.16746C34.5209 2.19513 33.9522 2.34298 33.4315 2.60168C31.4297 3.4277 29.5894 4.60039 27.9951 6.06583C24.1059 9.6434 20.8133 13.8194 18.242 18.436L18.2293 18.4252Z"
                fill="#00D8FF" />
            <path
                d="M35.5392 44.9988C33.0919 44.9988 29.9836 43.5177 26.747 40.7345C22.605 36.9656 19.0998 32.5516 16.3672 27.6635C13.5329 22.9213 11.4756 17.7561 10.2733 12.3638C9.75187 9.99142 9.65525 7.54538 9.98792 5.13927C10.0648 4.24669 10.3366 3.38185 10.7841 2.60574C11.2316 1.82963 11.8439 1.16114 12.5779 0.647422C15.2636 -0.907657 19.8205 0.690769 24.4713 4.81958C28.3375 8.47191 31.6206 12.6956 34.2063 17.3433C37.0389 21.9748 39.1177 27.0269 40.3652 32.3107C40.9091 34.7701 40.993 37.309 40.6127 39.7989C40.5222 40.7172 40.2342 41.605 39.7684 42.4015C39.3027 43.198 38.6702 43.8844 37.9143 44.4136C37.1885 44.8158 36.3688 45.0178 35.5392 44.9988ZM18.2365 26.5762C20.858 31.2477 24.2063 35.4721 28.1558 39.0909C32.2178 42.5858 35.4399 43.3371 36.8252 42.5226C38.2701 41.6827 39.3357 38.2547 38.2376 32.708C37.0345 27.6634 35.0405 22.841 32.3298 18.4197C29.8623 13.9715 26.7285 9.92707 23.0372 6.42704C18.6591 2.54025 15.1083 1.6715 13.6616 2.50954C13.2107 2.87597 12.8406 3.33192 12.5748 3.84858C12.3091 4.36525 12.1533 4.93142 12.1173 5.51133C11.8302 7.65717 11.9237 9.83684 12.3937 11.9502C13.5502 17.1069 15.5232 22.0458 18.2383 26.5798L18.2365 26.5762Z"
                fill="#00D8FF" />
        </symbol>

        <symbol id="mongodb">
            <path
            d="M9.96542 0.122902L11.1663 2.37836C11.4363 2.79458 11.7287 3.16299 12.0732 3.50609C13.0832 4.5035 14.0247 5.56803 14.8911 6.69241C16.9258 9.36408 18.2982 12.331 19.2783 15.5399C19.8661 17.5 20.1853 19.5108 20.2092 21.5441C20.3076 27.6229 18.2237 32.8425 14.0222 37.1804C13.3387 37.8683 12.6004 38.4994 11.8145 39.0675C11.3983 39.0675 11.2014 38.7483 11.0299 38.4544C10.7175 37.9094 10.5096 37.311 10.4168 36.6897C10.2692 35.9543 10.1721 35.2189 10.2199 34.4595V34.1164C10.1862 34.0433 9.81919 0.295858 9.96542 0.122902Z"
            fill="#599636" />
            <path
                d="M9.96545 0.0483756C9.91624 -0.0500545 9.86702 0.0244711 9.81781 0.0722801C9.84171 0.564431 9.67016 1.00315 9.40159 1.42218C9.1063 1.8384 8.71539 2.15759 8.32308 2.50069C6.14355 4.38774 4.42806 6.6671 3.05425 9.21644C1.22627 12.6474 0.284149 16.3245 0.0169816 20.1956C-0.105353 21.5919 0.458511 26.519 0.898634 27.9407C2.09948 31.7148 4.25651 34.8772 7.05052 37.622C7.73671 38.2828 8.47072 38.8959 9.23004 39.4851C9.45081 39.4851 9.47471 39.2882 9.52533 39.142C9.62212 38.8291 9.6959 38.5095 9.7461 38.1858L10.2382 34.5102L9.96545 0.0483756Z"
                fill="#6CAC48" />
            <path
                d="M11.1662 40.5608C11.2155 39.9983 11.4854 39.5315 11.7793 39.0661C11.484 38.9437 11.2647 38.7005 11.0931 38.4291C10.9452 38.1721 10.8227 37.9013 10.7275 37.6206C10.3844 36.5913 10.3113 35.5113 10.2129 34.4595V33.8226C10.0905 33.921 10.0652 34.7534 10.0652 34.8772C9.99368 35.9888 9.84616 37.0943 9.6237 38.1858C9.55058 38.6274 9.50137 39.0675 9.22998 39.4598C9.22998 39.509 9.22998 39.5582 9.25389 39.6313C9.69541 40.9306 9.81634 42.2538 9.89087 43.6023V44.0944C9.89087 44.6822 9.86696 44.5585 10.3549 44.7553C10.5518 44.8284 10.7711 44.8538 10.968 45C11.1156 45 11.1395 44.8777 11.1395 44.7792L11.0664 43.9707V41.7152C11.0425 41.3215 11.1156 40.9306 11.1648 40.5622L11.1662 40.5608Z"
                fill="#C2BFBF" />
        </symbol>

        <symbol id="nodejs">
            <path
            d="M19.9507 0C19.3522 0 18.7315 0.155172 18.2217 0.44335L1.72906 9.97537C0.665025 10.5961 0 11.7488 0 12.9901V32.0099C0 33.2512 0.665025 34.4039 1.72906 35.0246L6.05172 37.5074C8.15764 38.5271 8.867 38.5493 9.84237 38.5493C12.9458 38.5493 14.7414 36.665 14.7414 33.3842V14.6084C14.7414 14.3424 14.5197 14.1207 14.2537 14.1207H12.1921C11.9039 14.1207 11.6823 14.3424 11.6823 14.6084V33.3842C11.6823 34.8473 10.1749 36.2882 7.75862 35.069L3.21429 32.4754C3.05911 32.3645 2.97044 32.1872 2.97044 32.0099V12.9901C2.97044 12.7906 3.05911 12.6133 3.21429 12.5246L19.7069 3.01478C19.8399 2.92611 20.0616 2.92611 20.1946 3.01478L36.6872 12.5246C36.8424 12.6133 36.931 12.7906 36.931 12.9901V32.0099C36.931 32.1872 36.8424 32.3645 36.6872 32.4754L20.1946 41.9852C20.0616 42.0739 19.8399 42.0739 19.6847 41.9852L15.5172 39.4581C15.3399 39.3916 15.1626 39.3695 15.0517 39.436C13.8768 40.101 13.6552 40.234 12.569 40.5665C12.303 40.6552 11.8818 40.8103 12.7241 41.2759L18.2217 44.5345C18.7537 44.8448 19.33 45 19.9507 45C20.5714 45 21.1478 44.8448 21.6798 44.5345L38.1724 35.0246C39.2365 34.4039 39.9015 33.2512 39.9015 32.0099V12.9901C39.9015 11.7488 39.2365 10.5961 38.1724 9.97537L21.6798 0.44335C21.17 0.155172 20.5714 0 19.9507 0ZM24.3842 13.633C19.6847 13.633 16.8695 15.6059 16.8695 18.931C16.8695 22.5 19.6626 23.5419 24.1847 23.9852C29.5714 24.5172 29.9926 25.3153 29.9926 26.3793C29.9926 28.2192 28.5074 28.9951 25.0493 28.9951C20.6601 28.9951 19.7291 27.9089 19.3966 25.7365C19.3522 25.5148 19.1527 25.3374 18.9089 25.3374H16.7808C16.5148 25.3374 16.3153 25.5369 16.3153 25.8251C16.3153 28.5739 17.8227 31.899 25.0493 31.899C30.2586 31.899 33.2512 29.8374 33.2512 26.2463C33.2512 22.6773 30.8571 21.7463 25.7808 21.0591C20.6601 20.3941 20.1502 20.0394 20.1502 18.8424C20.1502 17.8448 20.5936 16.5148 24.3842 16.5148C27.7094 16.5148 29.0172 17.2463 29.5271 19.5296C29.5714 19.7512 29.7709 19.9064 29.9926 19.9064H32.1429C32.2537 19.9064 32.3867 19.8621 32.4754 19.7512C32.564 19.6626 32.6305 19.5296 32.5862 19.3966C32.2759 15.4507 29.6601 13.633 24.3842 13.633Z"
            fill="#8BC34A" />
        </symbol>

        <symbol id="python">
            <path
            d="M11.8635 6.02138C11.8635 2.92326 12.7132 1.23787 17.4048 0.435313C20.59 -0.110491 24.6739 -0.178716 28.4834 0.435313C31.4923 0.92085 34.0247 3.11202 34.0247 6.02138V16.2427C34.0247 19.2405 31.566 21.6962 28.4834 21.6962H17.4048C13.6449 21.6962 10.476 24.8304 10.476 28.3738V33.2779H6.66671C3.44456 33.2779 1.56854 31.0064 0.780449 27.828C-0.282591 23.558 -0.237464 21.0139 0.780449 16.9245C1.66298 13.357 4.48295 11.4746 7.70533 11.4746H22.9461V10.1101H11.8633V6.02116L11.8635 6.02138Z"
            fill="url(#paint0_linear_30_203)" />
            <path
                d="M34.025 38.7316C34.025 41.8297 31.2748 43.3989 28.4837 44.1814C24.2846 45.3613 20.9145 45.1807 17.4051 44.1814C14.4742 43.3468 11.8638 41.6412 11.8638 38.7316V28.5103C11.8638 25.5686 14.3718 23.0568 17.4051 23.0568H28.4837C32.1739 23.0568 35.4125 19.9389 35.4125 16.2427V11.4751H39.5665C42.7929 11.4751 44.3118 13.8186 45.1078 16.9249C46.216 21.2391 46.2653 24.4654 45.1078 27.8285C43.9873 31.0951 42.7887 33.2783 39.5665 33.2783H22.9464V34.6428H34.025V38.7316Z"
                fill="url(#paint1_linear_30_203)" />
            <path
                d="M14.6343 5.34322C14.6343 4.21159 15.5619 3.29646 16.7115 3.29646C17.8567 3.29646 18.7887 4.21136 18.7887 5.34322C18.7887 6.47121 17.8569 7.38589 16.7115 7.38589C15.5624 7.38589 14.6343 6.47098 14.6343 5.34322ZM27.1 39.41C27.1 38.282 28.0318 37.3673 29.1772 37.3673C30.3263 37.3673 31.2544 38.2822 31.2544 39.41C31.2544 40.5416 30.3268 41.4567 29.1772 41.4567C28.0321 41.4567 27.1 40.5418 27.1 39.41Z"
                fill="white" />

            <linearGradient id="paint0_linear_30_203" x1="34.025" y1="12.9367" x2="0.00036441"
                y2="12.66" gradientUnits="userSpaceOnUse">
                <stop stop-color="#366A96" />
                <stop offset="1" stop-color="#3679B0" />
            </linearGradient>
            <linearGradient id="paint1_linear_30_203" x1="45.9573" y1="28.2376" x2="-21.3952"
                y2="28.2376" gradientUnits="userSpaceOnUse">
                <stop stop-color="#FFC836" />
                <stop offset="1" stop-color="#FFE873" />
            </linearGradient>

        </symbol>
    </defs>

</svg>
